<mxfile host="65bd71144e">
    <diagram id="x6--HtcsNVcnTFqx9CSX" name="Page-1">
        <mxGraphModel dx="894" dy="436" grid="1" gridSize="10" guides="1" tooltips="1" connect="1" arrows="1" fold="1" page="1" pageScale="1" pageWidth="850" pageHeight="1100" math="0" shadow="0">
            <root>
                <mxCell id="0"/>
                <mxCell id="1" parent="0"/>
                <mxCell id="2" value="&lt;font style=&quot;font-size: 14px;&quot;&gt;04 . Let and Const Code Execution&lt;/font&gt;" style="text;html=1;align=center;verticalAlign=middle;resizable=0;points=[];autosize=1;strokeColor=none;fillColor=none;" vertex="1" parent="1">
                    <mxGeometry x="40" y="10" width="240" height="30" as="geometry"/>
                </mxCell>
                <mxCell id="3" value="" style="shape=image;verticalLabelPosition=bottom;labelBackgroundColor=default;verticalAlign=top;aspect=fixed;imageAspect=0;image=data:image/png,iVBORw0KGgoAAAANSUhEUgAAAMgAAABMCAYAAAAoefhQAAAAAXNSR0IArs4c6QAAAARnQU1BAACxjwv8YQUAAAAJcEhZcwAADsMAAA7DAcdvqGQAAA2ISURBVHhe7Z1/bFXlGce/m2YuoqX8aClzpEVvsgwrtlLniiDrLjehKdGMUohj/lhmQSMs89fsoBgjtasTf2RgsLaLP4sBWgzTpiSlQ7EpYYitCsw/LlKsjv5Aub1aM5KR7Xnf855z33N6z+m9t/dei3k+yQv3vOect+e8533e53ne8z7n/V5ubu7/wDBMVL6v/mcYJgosIAzjAQsIw3jAAsIwHrCAMIwHLCAM4wELCMN4cAEKSB1u6ziJjTJ9gNKAyk4KftR3PIkOmR5BbVLLtlP56BB6nzuntnQqUbrbvD9K9XUqX6DufXcTclTOdx7/CD7cOUK18u1wAQpIFV71z8Ym/w70qpzk0YE1/ofg9+9FUOWkhNXD2PDzH2DHvZeojAg5NWtRhC40yHuktKZK7Ukx97RHF7xAE9Y5BdXt2FTQMQltQ2ewIWpnknrYxEo757BvWQjB3ZPxsMrRmZmVgdDxt9Gvtu2ozmHZKpf9qSKMUNY8FKqtdPPwvT9GV1Y/9q1WGWnEe6qJ6CmW+9QGEDpYiy3VDcaG6Fmq5iPT2AKCOyK9nTiv4AgahkpRWZwhs2znSjNiPYomq03qr9/yB9CttjzLthDmRinO1F2LtnaVpcip+cD6u6PKjglhat2IL+oew3pH2XfXP4kKq0q+wiHbMeK8JYjUmMB+jDCtNpAQ5EXRHma9+I7rdWVgu6dR9WGcN719No4WnMRSeQFhvKfXjduzdNa1hao3uT8bwYPZdF9bjXNEWYFBNJiC6ii7t3k2Xt0mfolnNA9n6NwiuvbQwR0IzllJz12/NkdbiPqsCdK6vYsvxuMrJsFeM8DCP72CPxQB7//1djz+jspMEu4aRN50Nt2IUvWUIg+NbpwqNUQVYewjc8e3EutqNEuRtiuz2oz9zUFkFq+weiBpRgxRRahyN9kacAxle0HXXVk8SA/XOL+BHs7SJJkD/ppHUJHVjVpphj2E2oPADVVrcbfaf3c9CUdwr9znr+vG15QXbNYF6DxK5nyD4AdO4VC+RYfRUDKL14/ysfqrr1X3EzYyopC3/CQWDNXK494KZqBouWkWUfluz7J9FbaIPHpGGNZMO0en0l/dhtCcX0SpRyqbOkOzXFFO3vJ2Tdv4UCTagWwDK6UQi2vzLTKeZ2E93bPVFmrxXpbLs37hhwhmfIMSv9pOEy4CQlId8JHEbx3VOwtyakqRR5XZLnsJAal+UQF6BYrKNnuCbUfIX8hGju70+qKr7JjK9qCwwEc9WOThigfbOzkfheN2uP1YUXw5gu3byVMx6KjejkPDuSi8R2z5UUidaLBH7W3/J44N0/1coeuT/yI741IMnlCbFqZfRQ2EzhG9u9FgRmtHT6j3NRt+dw81+KxZWp1FGmViVOHo0HwE5L3q0LXrPf6oZ03aolnttz1XQR3yfaSprPMb6H7dnvXFGAx/g+yr1KbGu3++HeXlydceAhcBuQrTqScLfe5UZhpDfQnbwaI3fCvow1LZS54c3WMkXHYlcrKMntQaBepYiTy1d/x8hS9cvfdT+IIat69AdXGBn+HqyV/h2DvaCX4SEPUzFfT26A01oPkq1IjrugBLM+k9fOx0N3chs0AfVTMorE+wvgOzyLSLtAOZNFPNzkXoGwKyf3RebacHFwE5gTP0sD2x9U6ip4zv0XevUSqZTKgQPTibkIyzbGEDWyo/kZ7Ylcsxzfb8cjFN86M+pQcI3xJjmLiKmuDB7XYfpoN6QfUz7ZimFCVpdiYiJO1vI5hVitIr1DYhfKOlQgtYdR3v6KJ+rkqWYOucxyzq/Ab/fZHaTg8uAtKA7uNhhy0Zof+dowhN1tVtHQLkhPXSQ4i/57cL4/jK9r5ui0Ub8EpLC1pe3ICFKmtsOtBNysAX+DUZUwb+mhvhG+7GTmE2UH6p7xR2Kf9EpFuqnerG3UxIJ/2fRxHT4CDV+1imqDCBBuGb4+iwhgdxWv0srI9DgwiBGyYNYnvX44abeWo46S30PDffqTKSiKuTLswgo6eJqD+rlxe9EansTMuUWYlMspuNkYuxEKMWkTKlY0pOms1p9CpbDB6o/Dyyq4uqxG+7M+u87pjH7O9Zq14SipGoy8kBt78wfH7NQ9g1VIj16mXi+uIvsWuZ8knIN2kL5qJC7TPTnhpd5VyE/ccvhW9xvC++InUmR7J8K437iqlhEVadqSQddsfIHtX7roNQ9SmSSydDPkZosjlCKOpb+HjzUanKXjDUFYcGIYFbZjjm+vVFddJX/we+8KXYbzqAGu+eNgR+dv4d8v9kwhGFyYI0yJ6qqWjzb8XzKsvI8+GYbSj4HPbtJV24OxeLX1BZzBicx/adnyF7n0udCYvg99dh8M1yPPiSyksSrhqEiRPfVFymfpr4F/ko70t8avN/LsHi3eSaLhvGEyqH8eaJ5z7D/KGcKMKxEBteJFM5RcIhYA2SROwvEQXCJ9E0iob3C0PGQszFWgNsifKCMB2wgDCMB2xiMYwHLCAM4wELCMN4wALCMB6wgDCMB64CcsmSZtywsc1Iq+5SuelFzPOJvGG1v9k19902anYpEz+z8NT9t+K1kgxgxtV4jX4/dY3aNWEwrvGN8llqW5D663YVkHN7l+PQplL0HB5ROXEy8zFcvXErIpMS4iTQhIpiaDEMjqkRqUIECEWdZmFO99D3iTiOZMfFMxOJiWti+bKROXwU3S6zcM0AotjmfyWP0HA28r9zWmsYZ8PAwBnxTxgDCOPstzbt2I0+PPD06/hVS5/aFqT+usd8UShMrYJpe3GoqVHlmNyFvI3lmKG2vj78Fxzbu59+2fMjjKC3cTkGzGmfYyBDTOccjYR1Wohe25wx6ggrFYiJeSIclASnwgwltYVxOkI8rZBcvVwd828Y500/3oXMOcAueV3iHD3s11G2CBpT1y/upwJHESqeT3+D/mYzsFTEPujXJqM4zVfxUe7tWyMD1XeVYZ5lDvRhz9OdkDM7rlmAN244i2caj+GA3CfMnrk429SKmgFt/5vA6lVzMUkccqpTa+iOssMfOspagCvlb4Xt3Fi4A5tbbsbsk39H+YMvq7zYSVCDlGDGunJMIqEQZtihTS0Yuf6PyLtO7GtEr8hrPIyvcQL/kvtFik04zOAbOWtVmyUameFpRt95xB2I86qy0SmOq+tCyFdqmUHu4b6qXHG8LUbB0Ug/X4XOoejTwnNqVgDbzPNq8R7mo0KbmZpZnE/CJKIGfVgqhFhem4qsFKadHhbbPIiiqjGm7aeJm0oWYt5ZapiiB5dJCUesZMzFfaumYJ84t+lDjOTORbXqQW8qmQu8aZbbiiOYi9XCp5AoraHSnlMqO40kJiAzSzAdhxGUGkPQiNPkq8z46fideTOQSsZeix5YNdRIPHwsiN5XNXwZc5CB6focKZdw31jp7qHGa8V7R+ivDmjCZMSmZGZpwR/BNmu/M74lZ1E+oIc4b9spBSkmc+6Xj2JnaytanWnL79QBSSA3F4mHW4RxpEkJ1UAfPg5nYIoKKTmwv9PQNJIwDpwIY9JUS70ngZfxYHl5QtpDkKCATMVlmdejwBzlolRwvVSeEwOb7yJiDiK+ypjhvrEgGm+0z+BIB98o19KCMSI+9xP5WINIuhk4Bv94FCvKylDmTOv+pg4YHwf2t1LvPQu3iFEkc9QoHsK9OKAJQU3j63jgI7WpRp9EuSLdVxhn2SkmcSc9dBg9lvmk0ig/ZWLiGe4bE0I7ZGNBjT7kSP4I+TywPrjg/QWSaEQ+1hBJMQ1CpEGDvNRimjqdGCgsi19IokI+Bvkl6G61zKhnuuOrs1STmIC834MB0iC+JSUqIwqnPyW3/CpMlX7JRCVK7H17H/kgY5s2xmdw8kd9T8r60IUcpo69EYmvkGQWr01syDjFGsSOMXJkI2OKcqSFw+1wqmNAjkIJSJusTroGEU56vOHVEVwERDjhmul0ZbnjhaFwxA3H3DSxRDKcdBM6pvUEZpSZ+5sxY6baNR7GCLn1JhK6apkxerivhJx1+W0n8xi3ssVncMgsUltiu500hnWe/NhaHL2h+AqJdMzNvyvSRHDSRaOPmEBv3F8mHfbf7Ff39lGnZn6VYcqhTnxi7ImBPuwhjXFlQJVNjvzHSdcgnxgCnfET3LTIyIkHjgdhLhjuLL8Vi79sjQhnjNyxuQU3T3sfz/72cbyr8mIlcR+EYdIJmV+LczVzLBbu3Cy/dpKocAhYgzATF/GSMRAZCBkhZz5e7TFeWEAYxgM2sRjGAxYQhvGABYRhPGABYRgPWEAYxoMLUEBEDIb5pjnZ0Xy8yu2Eg1e5jZcY4kEShle5HSV45gxlXuWWSQ+8ym288Cq3VtirwqtsC2e4awQZrmvNpHWUHRO8yq1Vb3I/r3I7GnnTvMqtDq9yy6vcKkiqeZVbB7zKLa9ya8Gr3EaHV7nlVW4lvMptdHiVW17lVsKr3I6GV7k1TCBe5VYizCBe5db+wvD5NbzKLa9yyyQGr3KbQniV2wsfXuU2ZfAqt98ReJXbFMCr3DLMxIVNLIbxgAWEYTxgAWEYD1hAGMYDFhCG8YAFhGE8YAFhGA9YQBjGAxYQhvGABYRhPGABYRgPWEAYxgMWEIbxgAWEYTxgAWEYD1hAGMYV4P8uonyhD2nrTQAAAABJRU5ErkJggg==;" vertex="1" parent="1">
                    <mxGeometry x="70" y="60" width="236.84" height="90" as="geometry"/>
                </mxCell>
                <mxCell id="4" value="" style="rounded=0;whiteSpace=wrap;html=1;gradientColor=none;" vertex="1" parent="1">
                    <mxGeometry x="400" y="47.5" width="210" height="102.5" as="geometry"/>
                </mxCell>
                <mxCell id="5" value="&lt;font style=&quot;font-size: 14px;&quot;&gt;Global Scope&lt;/font&gt;" style="text;html=1;align=center;verticalAlign=middle;resizable=0;points=[];autosize=1;strokeColor=none;fillColor=none;" vertex="1" parent="1">
                    <mxGeometry x="470" y="12.5" width="110" height="30" as="geometry"/>
                </mxCell>
                <mxCell id="6" value="firstName" style="text;html=1;align=center;verticalAlign=middle;resizable=0;points=[];autosize=1;strokeColor=none;fillColor=none;fontSize=14;" vertex="1" parent="1">
                    <mxGeometry x="435" y="70" width="80" height="30" as="geometry"/>
                </mxCell>
                <mxCell id="8" value="" style="rounded=0;whiteSpace=wrap;html=1;" vertex="1" parent="1">
                    <mxGeometry x="56" y="220" width="661" height="170" as="geometry"/>
                </mxCell>
                <mxCell id="9" value="Global Execute Context (GEC)" style="text;html=1;align=center;verticalAlign=middle;resizable=0;points=[];autosize=1;strokeColor=none;fillColor=none;fontSize=14;" vertex="1" parent="1">
                    <mxGeometry x="67" y="173" width="210" height="30" as="geometry"/>
                </mxCell>
                <mxCell id="10" value="&lt;ol style=&quot;font-size: 14px;&quot;&gt;&lt;li style=&quot;text-align: justify;&quot;&gt;&lt;font style=&quot;font-size: 14px;&quot;&gt;first line execute - error Cannot access 'firstName'&amp;nbsp; before initialization&lt;/font&gt;&lt;/li&gt;&lt;/ol&gt;" style="rounded=0;whiteSpace=wrap;html=1;align=left;" vertex="1" parent="1">
                    <mxGeometry x="56" y="260" width="394" height="130" as="geometry"/>
                </mxCell>
                <mxCell id="11" value="&lt;div style=&quot;font-size: 14px;&quot;&gt;wiindow : { }&lt;/div&gt;&lt;div style=&quot;font-size: 14px;&quot;&gt;this : window&lt;/div&gt;&lt;div style=&quot;font-size: 14px;&quot;&gt;&lt;/div&gt;&lt;span style=&quot;font-size: 14px;&quot;&gt;firstName&lt;/span&gt;&lt;span style=&quot;font-size: 14px; background-color: initial;&quot;&gt;:&amp;nbsp;&lt;/span&gt;&lt;span style=&quot;font-size: 14px;&quot;&gt;uninitialized&lt;/span&gt;&lt;br&gt;&lt;div style=&quot;font-size: 14px;&quot;&gt;&lt;br&gt;&lt;/div&gt;&lt;div style=&quot;font-size: 14px;&quot;&gt;after 2 line execute&amp;nbsp;&lt;/div&gt;&lt;div style=&quot;font-size: 14px;&quot;&gt;firstName: 'suraj'&lt;/div&gt;&lt;div style=&quot;font-size: 14px;&quot;&gt;&lt;br&gt;&lt;/div&gt;" style="rounded=0;whiteSpace=wrap;html=1;align=center;" vertex="1" parent="1">
                    <mxGeometry x="450" y="260" width="267" height="130" as="geometry"/>
                </mxCell>
                <mxCell id="12" value="&lt;font style=&quot;font-size: 14px;&quot;&gt;Code Execution Phase (CEP)&lt;/font&gt;" style="text;html=1;align=center;verticalAlign=middle;resizable=0;points=[];autosize=1;strokeColor=none;fillColor=none;" vertex="1" parent="1">
                    <mxGeometry x="78" y="230" width="210" height="30" as="geometry"/>
                </mxCell>
                <mxCell id="13" value="&lt;font style=&quot;font-size: 14px;&quot;&gt;Global Memory&lt;/font&gt;" style="text;html=1;align=center;verticalAlign=middle;resizable=0;points=[];autosize=1;strokeColor=none;fillColor=none;" vertex="1" parent="1">
                    <mxGeometry x="523" y="230" width="120" height="30" as="geometry"/>
                </mxCell>
                <mxCell id="14" value="" style="endArrow=none;html=1;fontSize=14;exitX=0;exitY=0;exitDx=0;exitDy=0;" edge="1" parent="1">
                    <mxGeometry width="50" height="50" relative="1" as="geometry">
                        <mxPoint x="450" y="261" as="sourcePoint"/>
                        <mxPoint x="450" y="221" as="targetPoint"/>
                    </mxGeometry>
                </mxCell>
                <mxCell id="15" value="OUTPUT :" style="text;html=1;align=center;verticalAlign=middle;resizable=0;points=[];autosize=1;strokeColor=none;fillColor=none;fontSize=14;" vertex="1" parent="1">
                    <mxGeometry x="56" y="410" width="90" height="30" as="geometry"/>
                </mxCell>
                <mxCell id="17" value="&lt;div style=&quot;box-sizing: border-box; min-width: 0px; min-height: 0px; position: relative;&quot; class=&quot;console-group console-group-messages&quot; tabindex=&quot;-1&quot;&gt;&lt;div style=&quot;box-sizing: border-box; min-width: 0px; min-height: 0px; outline-width: 0px; display: flex; flex-direction: column; margin: 4px; border-radius: 5px; --console-color-black: #000; --console-color-red: rgb(237 78 76); --console-color-green: rgb(1 200 1); --console-color-yellow: rgb(210 192 87); --console-color-blue: rgb(39 116 240); --console-color-magenta: rgb(161 66 244); --console-color-cyan: rgb(18 181 203); --console-color-gray: rgb(207 208 208); --console-color-darkgray: rgb(137 137 137); --console-color-lightred: rgb(242 139 130); --console-color-lightgreen: rgb(161 247 181); --console-color-lightyellow: rgb(221 251 85); --console-color-lightblue: rgb(102 157 246); --console-color-ightmagenta: #f5f; --console-color-lightcyan: rgb(132 240 255); --console-color-white: #fff; background-color: var(--sys-color-tonal-container); --message-corner-rounder-background: var(--sys-color-surface-error); --console-color-lightmagenta: rgb(214 112 214);&quot; aria-label=&quot;Uncaught ReferenceError: Cannot access 'firstName' before initialization&quot; role=&quot;log&quot; class=&quot;console-message-wrapper console-error-level console-selected&quot; tabindex=&quot;-1&quot;&gt;&lt;div style=&quot;box-sizing: border-box; min-width: 0px; min-height: 0px; display: flex; flex-direction: row;&quot; class=&quot;console-row-wrapper&quot;&gt;&lt;div style=&quot;box-sizing: border-box; min-width: 0px; min-height: 17px; clear: right; position: relative; padding: 3px 22px 1px 0px; margin-left: 24px; flex: 1 1 auto; display: flex;&quot; class=&quot;console-message&quot;&gt;&lt;div style=&quot;box-sizing: border-box; min-width: 0px; min-height: 0px; flex: 1 1 auto; display: flex; flex-direction: row; align-items: flex-start; margin-top: -1px;&quot; class=&quot;console-message-stack-trace-toggle&quot;&gt;&lt;div style=&quot;box-sizing: border-box; min-width: 0px; min-height: 0px; flex: 1 1 auto; display: flex; flex-direction: column; align-items: stretch;&quot; aria-label=&quot;04_let_const_code_execution.js:3 Uncaught ReferenceError: Cannot access 'firstName' before initialization&#10;    at 04_let_const_code_execution.js:3:13 Stack table collapsed&quot; class=&quot;console-message-stack-trace-wrapper&quot;&gt;&lt;div style=&quot;box-sizing: border-box; min-width: 0px; min-height: 0px; flex: 0 0 auto;&quot; tabindex=&quot;-1&quot; aria-expanded=&quot;false&quot;&gt;&lt;span style=&quot;box-sizing: border-box; min-width: 0px; min-height: 0px; font-family: var(--source-code-font-family); line-height: 1.2; font-size: var(--source-code-font-size) !important;&quot; class=&quot;source-code&quot;&gt;&lt;span style=&quot;box-sizing: border-box; min-width: 0px; min-height: 0px; float: right; text-align: right; max-width: 100%; margin-left: 4px;&quot; class=&quot;console-message-anchor&quot;&gt;&lt;button style=&quot;box-sizing: border-box; min-width: 0px; min-height: 0px; font: inherit; margin: 0px; height: unset; border: none; border-radius: 2px; color: var(--sys-color-primary); background: none; flex: 0 0 auto; text-decoration: underline; outline-offset: 2px; outline: none; cursor: pointer; max-width: 100%; overflow: hidden; text-overflow: ellipsis; word-break: break-all; padding: 0px !important;&quot; title=&quot;http://127.0.0.1:5500/part_2/04_let_const_code_execution/04_let_const_code_execution.js:3&quot; tabindex=&quot;-1&quot; role=&quot;link&quot; class=&quot;devtools-link text-button link-style&quot;&gt;&lt;br class=&quot;Apple-interchange-newline&quot;&gt;04_let_const_code_execution.js:3&lt;/button&gt; &lt;/span&gt;&lt;span style=&quot;box-sizing: border-box; min-width: 0px; min-height: 0px; color: var(--override-error-text-color) !important;&quot; class=&quot;console-message-text&quot;&gt;Uncaught &lt;span style=&quot;box-sizing: border-box; min-width: 0px; min-height: 0px; font-family: var(--source-code-font-family); line-height: 1.2; font-size: var(--source-code-font-size) !important;&quot; class=&quot;object-value-error source-code&quot;&gt;&lt;span style=&quot;box-sizing: border-box; min-width: 0px; min-height: 0px;&quot;&gt;ReferenceError: Cannot access 'firstName' before initialization&#10;&lt;span style=&quot;box-sizing: border-box; min-width: 0px; min-height: 0px;&quot;&gt;    at &lt;button style=&quot;box-sizing: border-box; min-width: 0px; min-height: 0px; font: inherit; margin: 0px; height: unset; border: none; border-radius: 2px; color: var(--sys-color-primary); background: none; flex: 0 0 auto; text-decoration: underline; outline-offset: 2px; outline: none; cursor: pointer; max-width: 100%; overflow: hidden; text-overflow: ellipsis; word-break: break-all; padding: 0px !important;&quot; title=&quot;http://127.0.0.1:5500/part_2/04_let_const_code_execution/04_let_const_code_execution.js:3:13&quot; tabindex=&quot;-1&quot; role=&quot;link&quot; class=&quot;devtools-link text-button link-style&quot;&gt;04_let_const_code_execution.js:3:13&lt;/button&gt;&lt;/span&gt;&lt;/span&gt;&lt;/span&gt;&lt;/span&gt;&lt;/span&gt;&lt;/div&gt;&lt;/div&gt;&lt;/div&gt;&lt;/div&gt;&lt;button style=&quot;box-sizing: border-box; min-width: var(--width); min-height: var(--width); font-family: var(--default-font-family); font-size: inherit; --width: 24px; align-items: center; background-color: var(--sys-color-cdt-base-container); border-radius: 50%; border: none; box-shadow: rgba(0, 0, 0, 0.15) 0px 1px 3px 1px, rgba(0, 0, 0, 0.3) 0px 1px 2px 0px; color: var(--sys-color-primary); height: var(--width); justify-content: center; margin: 0px; max-height: var(--width); max-width: var(--width); overflow: hidden; padding: 4px 3px 4px 5px; position: absolute; right: 6px; display: block; width: var(--width);&quot; tabindex=&quot;0&quot; aria-label=&quot;Understand this error&quot; class=&quot;hover-button&quot;&gt;&lt;span style=&quot;display: block; width: 15.9943px; height: 15.9943px; background-color: currentcolor; mask: var(--icon-url) center /contain no-repeat; --icon-url: var(--image-file-lightbulb-spark);&quot;&gt;&lt;/span&gt;&lt;/button&gt;&lt;/div&gt;&lt;/div&gt;&lt;/div&gt;&lt;div style=&quot;box-sizing: border-box; min-width: 0px; min-height: 0px; height: 0px; color: transparent;&quot; aria-hidden=&quot;true&quot;&gt;﻿&lt;/div&gt;&lt;div style=&quot;box-sizing: border-box; min-width: 0px; min-height: 0px; font-family: var(--source-code-font-family); clear: right; position: relative; margin: 0px 22px 0px 20px; font-size: var(--source-code-font-size) !important;&quot; id=&quot;console-prompt&quot; class=&quot;source-code&quot;&gt;&lt;div style=&quot;box-sizing: border-box; min-width: 0px; min-height: 0px; position: relative; flex: 1 1 auto; contain: style;&quot; class=&quot;widget&quot;&gt;&lt;div style=&quot;box-sizing: border-box; min-width: 0px; min-height: 21px;&quot; class=&quot;console-prompt-editor-container&quot;&gt;&lt;div style=&quot;box-sizing: border-box; flex-direction: column; position: relative !important; display: flex !important; color: color: var(--sys-color-on-subtle); cursor: auto;&quot; class=&quot;cm-editor ͼ1 ͼ3 ͼ4 ͼ5 ͼ6&quot;&gt;&lt;div style=&quot;position: fixed; top: -10000px;&quot; aria-live=&quot;polite&quot; class=&quot;cm-announced&quot;&gt;&lt;/div&gt;&lt;div style=&quot;font-family: var(--source-code-font-family); line-height: 1.4em; height: 24.7869px; overflow-x: auto; position: relative; z-index: 0; display: flex !important; align-items: flex-start !important; font-size: var(--source-code-font-size);&quot; class=&quot;cm-scroller&quot; tabindex=&quot;-1&quot;&gt;&lt;div style=&quot;margin: 0px; flex-grow: 2; flex-shrink: 1; display: block; overflow-wrap: anywhere; box-sizing: border-box; min-height: 100%; padding: 4px 0px; outline: none; word-break: break-word; line-height: 1.4em; -webkit-user-modify: read-write-plaintext-only; tab-size: 4; caret-color: transparent !important;&quot; aria-autocomplete=&quot;list&quot; data-language=&quot;javascript&quot; aria-label=&quot;Console prompt&quot; aria-multiline=&quot;true&quot; role=&quot;textbox&quot; class=&quot;cm-content cm-lineWrapping&quot; translate=&quot;no&quot; autocapitalize=&quot;off&quot; spellcheck=&quot;false&quot;&gt;&lt;div style=&quot;display: block; padding: 0px 2px 0px 6px; caret-color: transparent !important;&quot; class=&quot;cm-line&quot;&gt;&lt;br style=&quot;color: rgb(227, 227, 227); font-family: monospace; font-size: 12px; font-style: normal; font-variant-ligatures: normal; font-variant-caps: normal; font-weight: 400; letter-spacing: normal; orphans: 2; text-align: start; text-indent: 0px; text-transform: none; widows: 2; word-spacing: 0px; -webkit-text-stroke-width: 0px; caret-color: rgba(0, 0, 0, 0); background-color: rgb(40, 40, 40); text-decoration-thickness: initial; text-decoration-style: initial; text-decoration-color: initial;&quot;&gt;&#10;&#10;&lt;/div&gt;&lt;/div&gt;&lt;/div&gt;&lt;/div&gt;&lt;/div&gt;&lt;/div&gt;&lt;/div&gt;" style="text;whiteSpace=wrap;html=1;fontSize=14;" vertex="1" parent="1">
                    <mxGeometry x="56" y="461" width="701" height="110" as="geometry"/>
                </mxCell>
                <mxCell id="19" value="" style="endArrow=none;html=1;fontSize=14;" edge="1" parent="1">
                    <mxGeometry width="50" height="50" relative="1" as="geometry">
                        <mxPoint x="70" y="569" as="sourcePoint"/>
                        <mxPoint x="780" y="569" as="targetPoint"/>
                    </mxGeometry>
                </mxCell>
                <mxCell id="20" value="" style="endArrow=none;html=1;fontSize=14;" edge="1" parent="1">
                    <mxGeometry width="50" height="50" relative="1" as="geometry">
                        <mxPoint x="70" y="441" as="sourcePoint"/>
                        <mxPoint x="780" y="441" as="targetPoint"/>
                    </mxGeometry>
                </mxCell>
                <mxCell id="21" value="" style="endArrow=none;html=1;fontSize=14;" edge="1" parent="1">
                    <mxGeometry width="50" height="50" relative="1" as="geometry">
                        <mxPoint x="780" y="441" as="sourcePoint"/>
                        <mxPoint x="780" y="570" as="targetPoint"/>
                    </mxGeometry>
                </mxCell>
                <mxCell id="22" value="" style="endArrow=none;html=1;fontSize=14;" edge="1" parent="1">
                    <mxGeometry width="50" height="50" relative="1" as="geometry">
                        <mxPoint x="70" y="440" as="sourcePoint"/>
                        <mxPoint x="70" y="570" as="targetPoint"/>
                    </mxGeometry>
                </mxCell>
                <mxCell id="23" value="" style="shape=image;verticalLabelPosition=bottom;labelBackgroundColor=default;verticalAlign=top;aspect=fixed;imageAspect=0;image=data:image/png,iVBORw0KGgoAAAANSUhEUgAAAMgAAABMCAYAAAAoefhQAAAAAXNSR0IArs4c6QAAAARnQU1BAACxjwv8YQUAAAAJcEhZcwAADsMAAA7DAcdvqGQAAA2ISURBVHhe7Z1/bFXlGce/m2YuoqX8aClzpEVvsgwrtlLniiDrLjehKdGMUohj/lhmQSMs89fsoBgjtasTf2RgsLaLP4sBWgzTpiSlQ7EpYYitCsw/LlKsjv5Aub1aM5KR7Xnf855z33N6z+m9t/dei3k+yQv3vOect+e8533e53ne8z7n/V5ubu7/wDBMVL6v/mcYJgosIAzjAQsIw3jAAsIwHrCAMIwHLCAM4wELCMN4cAEKSB1u6ziJjTJ9gNKAyk4KftR3PIkOmR5BbVLLtlP56BB6nzuntnQqUbrbvD9K9XUqX6DufXcTclTOdx7/CD7cOUK18u1wAQpIFV71z8Ym/w70qpzk0YE1/ofg9+9FUOWkhNXD2PDzH2DHvZeojAg5NWtRhC40yHuktKZK7Ukx97RHF7xAE9Y5BdXt2FTQMQltQ2ewIWpnknrYxEo757BvWQjB3ZPxsMrRmZmVgdDxt9Gvtu2ozmHZKpf9qSKMUNY8FKqtdPPwvT9GV1Y/9q1WGWnEe6qJ6CmW+9QGEDpYiy3VDcaG6Fmq5iPT2AKCOyK9nTiv4AgahkpRWZwhs2znSjNiPYomq03qr9/yB9CttjzLthDmRinO1F2LtnaVpcip+cD6u6PKjglhat2IL+oew3pH2XfXP4kKq0q+wiHbMeK8JYjUmMB+jDCtNpAQ5EXRHma9+I7rdWVgu6dR9WGcN719No4WnMRSeQFhvKfXjduzdNa1hao3uT8bwYPZdF9bjXNEWYFBNJiC6ii7t3k2Xt0mfolnNA9n6NwiuvbQwR0IzllJz12/NkdbiPqsCdK6vYsvxuMrJsFeM8DCP72CPxQB7//1djz+jspMEu4aRN50Nt2IUvWUIg+NbpwqNUQVYewjc8e3EutqNEuRtiuz2oz9zUFkFq+weiBpRgxRRahyN9kacAxle0HXXVk8SA/XOL+BHs7SJJkD/ppHUJHVjVpphj2E2oPADVVrcbfaf3c9CUdwr9znr+vG15QXbNYF6DxK5nyD4AdO4VC+RYfRUDKL14/ysfqrr1X3EzYyopC3/CQWDNXK494KZqBouWkWUfluz7J9FbaIPHpGGNZMO0en0l/dhtCcX0SpRyqbOkOzXFFO3vJ2Tdv4UCTagWwDK6UQi2vzLTKeZ2E93bPVFmrxXpbLs37hhwhmfIMSv9pOEy4CQlId8JHEbx3VOwtyakqRR5XZLnsJAal+UQF6BYrKNnuCbUfIX8hGju70+qKr7JjK9qCwwEc9WOThigfbOzkfheN2uP1YUXw5gu3byVMx6KjejkPDuSi8R2z5UUidaLBH7W3/J44N0/1coeuT/yI741IMnlCbFqZfRQ2EzhG9u9FgRmtHT6j3NRt+dw81+KxZWp1FGmViVOHo0HwE5L3q0LXrPf6oZ03aolnttz1XQR3yfaSprPMb6H7dnvXFGAx/g+yr1KbGu3++HeXlydceAhcBuQrTqScLfe5UZhpDfQnbwaI3fCvow1LZS54c3WMkXHYlcrKMntQaBepYiTy1d/x8hS9cvfdT+IIat69AdXGBn+HqyV/h2DvaCX4SEPUzFfT26A01oPkq1IjrugBLM+k9fOx0N3chs0AfVTMorE+wvgOzyLSLtAOZNFPNzkXoGwKyf3RebacHFwE5gTP0sD2x9U6ip4zv0XevUSqZTKgQPTibkIyzbGEDWyo/kZ7Ylcsxzfb8cjFN86M+pQcI3xJjmLiKmuDB7XYfpoN6QfUz7ZimFCVpdiYiJO1vI5hVitIr1DYhfKOlQgtYdR3v6KJ+rkqWYOucxyzq/Ab/fZHaTg8uAtKA7uNhhy0Zof+dowhN1tVtHQLkhPXSQ4i/57cL4/jK9r5ui0Ub8EpLC1pe3ICFKmtsOtBNysAX+DUZUwb+mhvhG+7GTmE2UH6p7xR2Kf9EpFuqnerG3UxIJ/2fRxHT4CDV+1imqDCBBuGb4+iwhgdxWv0srI9DgwiBGyYNYnvX44abeWo46S30PDffqTKSiKuTLswgo6eJqD+rlxe9EansTMuUWYlMspuNkYuxEKMWkTKlY0pOms1p9CpbDB6o/Dyyq4uqxG+7M+u87pjH7O9Zq14SipGoy8kBt78wfH7NQ9g1VIj16mXi+uIvsWuZ8knIN2kL5qJC7TPTnhpd5VyE/ccvhW9xvC++InUmR7J8K437iqlhEVadqSQddsfIHtX7roNQ9SmSSydDPkZosjlCKOpb+HjzUanKXjDUFYcGIYFbZjjm+vVFddJX/we+8KXYbzqAGu+eNgR+dv4d8v9kwhGFyYI0yJ6qqWjzb8XzKsvI8+GYbSj4HPbtJV24OxeLX1BZzBicx/adnyF7n0udCYvg99dh8M1yPPiSyksSrhqEiRPfVFymfpr4F/ko70t8avN/LsHi3eSaLhvGEyqH8eaJ5z7D/KGcKMKxEBteJFM5RcIhYA2SROwvEQXCJ9E0iob3C0PGQszFWgNsifKCMB2wgDCMB2xiMYwHLCAM4wELCMN4wALCMB6wgDCMB64CcsmSZtywsc1Iq+5SuelFzPOJvGG1v9k19902anYpEz+z8NT9t+K1kgxgxtV4jX4/dY3aNWEwrvGN8llqW5D663YVkHN7l+PQplL0HB5ROXEy8zFcvXErIpMS4iTQhIpiaDEMjqkRqUIECEWdZmFO99D3iTiOZMfFMxOJiWti+bKROXwU3S6zcM0AotjmfyWP0HA28r9zWmsYZ8PAwBnxTxgDCOPstzbt2I0+PPD06/hVS5/aFqT+usd8UShMrYJpe3GoqVHlmNyFvI3lmKG2vj78Fxzbu59+2fMjjKC3cTkGzGmfYyBDTOccjYR1Wohe25wx6ggrFYiJeSIclASnwgwltYVxOkI8rZBcvVwd828Y500/3oXMOcAueV3iHD3s11G2CBpT1y/upwJHESqeT3+D/mYzsFTEPujXJqM4zVfxUe7tWyMD1XeVYZ5lDvRhz9OdkDM7rlmAN244i2caj+GA3CfMnrk429SKmgFt/5vA6lVzMUkccqpTa+iOssMfOspagCvlb4Xt3Fi4A5tbbsbsk39H+YMvq7zYSVCDlGDGunJMIqEQZtihTS0Yuf6PyLtO7GtEr8hrPIyvcQL/kvtFik04zOAbOWtVmyUameFpRt95xB2I86qy0SmOq+tCyFdqmUHu4b6qXHG8LUbB0Ug/X4XOoejTwnNqVgDbzPNq8R7mo0KbmZpZnE/CJKIGfVgqhFhem4qsFKadHhbbPIiiqjGm7aeJm0oWYt5ZapiiB5dJCUesZMzFfaumYJ84t+lDjOTORbXqQW8qmQu8aZbbiiOYi9XCp5AoraHSnlMqO40kJiAzSzAdhxGUGkPQiNPkq8z46fideTOQSsZeix5YNdRIPHwsiN5XNXwZc5CB6focKZdw31jp7qHGa8V7R+ivDmjCZMSmZGZpwR/BNmu/M74lZ1E+oIc4b9spBSkmc+6Xj2JnaytanWnL79QBSSA3F4mHW4RxpEkJ1UAfPg5nYIoKKTmwv9PQNJIwDpwIY9JUS70ngZfxYHl5QtpDkKCATMVlmdejwBzlolRwvVSeEwOb7yJiDiK+ypjhvrEgGm+0z+BIB98o19KCMSI+9xP5WINIuhk4Bv94FCvKylDmTOv+pg4YHwf2t1LvPQu3iFEkc9QoHsK9OKAJQU3j63jgI7WpRp9EuSLdVxhn2SkmcSc9dBg9lvmk0ig/ZWLiGe4bE0I7ZGNBjT7kSP4I+TywPrjg/QWSaEQ+1hBJMQ1CpEGDvNRimjqdGCgsi19IokI+Bvkl6G61zKhnuuOrs1STmIC834MB0iC+JSUqIwqnPyW3/CpMlX7JRCVK7H17H/kgY5s2xmdw8kd9T8r60IUcpo69EYmvkGQWr01syDjFGsSOMXJkI2OKcqSFw+1wqmNAjkIJSJusTroGEU56vOHVEVwERDjhmul0ZbnjhaFwxA3H3DSxRDKcdBM6pvUEZpSZ+5sxY6baNR7GCLn1JhK6apkxerivhJx1+W0n8xi3ssVncMgsUltiu500hnWe/NhaHL2h+AqJdMzNvyvSRHDSRaOPmEBv3F8mHfbf7Ff39lGnZn6VYcqhTnxi7ImBPuwhjXFlQJVNjvzHSdcgnxgCnfET3LTIyIkHjgdhLhjuLL8Vi79sjQhnjNyxuQU3T3sfz/72cbyr8mIlcR+EYdIJmV+LczVzLBbu3Cy/dpKocAhYgzATF/GSMRAZCBkhZz5e7TFeWEAYxgM2sRjGAxYQhvGABYRhPGABYRgPWEAYxoMLUEBEDIb5pjnZ0Xy8yu2Eg1e5jZcY4kEShle5HSV45gxlXuWWSQ+8ym288Cq3VtirwqtsC2e4awQZrmvNpHWUHRO8yq1Vb3I/r3I7GnnTvMqtDq9yy6vcKkiqeZVbB7zKLa9ya8Gr3EaHV7nlVW4lvMptdHiVW17lVsKr3I6GV7k1TCBe5VYizCBe5db+wvD5NbzKLa9yyyQGr3KbQniV2wsfXuU2ZfAqt98ReJXbFMCr3DLMxIVNLIbxgAWEYTxgAWEYD1hAGMYDFhCG8YAFhGE8YAFhGA9YQBjGAxYQhvGABYRhPGABYRgPWEAYxgMWEIbxgAWEYTxgAWEYD1hAGMYV4P8uonyhD2nrTQAAAABJRU5ErkJggg==;imageBackground=none;imageBorder=none;clipPath=inset(27.63% 0% 0% 0%);" vertex="1" parent="1">
                    <mxGeometry x="70" y="622" width="236.84" height="65.131" as="geometry"/>
                </mxCell>
                <mxCell id="24" value="First Initialization of firstName" style="text;html=1;align=center;verticalAlign=middle;resizable=0;points=[];autosize=1;strokeColor=#006EAF;fillColor=#1ba1e2;fontSize=14;fontColor=#ffffff;" vertex="1" parent="1">
                    <mxGeometry x="55" y="582" width="210" height="30" as="geometry"/>
                </mxCell>
                <mxCell id="26" value="" style="rounded=0;whiteSpace=wrap;html=1;" vertex="1" parent="1">
                    <mxGeometry x="66" y="748" width="661" height="174" as="geometry"/>
                </mxCell>
                <mxCell id="27" value="Global Execute Context (GEC)" style="text;html=1;align=center;verticalAlign=middle;resizable=0;points=[];autosize=1;strokeColor=none;fillColor=none;fontSize=14;" vertex="1" parent="1">
                    <mxGeometry x="77" y="701" width="210" height="30" as="geometry"/>
                </mxCell>
                <mxCell id="28" value="&lt;ol style=&quot;font-size: 14px;&quot;&gt;&lt;li style=&quot;text-align: justify;&quot;&gt;&lt;font style=&quot;font-size: 14px;&quot;&gt;first line execute -&amp;nbsp; firstName assign value : 'suraj'&lt;/font&gt;&lt;/li&gt;&lt;li style=&quot;text-align: justify;&quot;&gt;&lt;font style=&quot;font-size: 14px;&quot;&gt;&amp;nbsp;second line &lt;/font&gt;execute - print firstName : suraj&lt;/li&gt;&lt;/ol&gt;" style="rounded=0;whiteSpace=wrap;html=1;align=left;" vertex="1" parent="1">
                    <mxGeometry x="66" y="788" width="394" height="134" as="geometry"/>
                </mxCell>
                <mxCell id="29" value="&lt;div style=&quot;font-size: 14px;&quot;&gt;wiindow : { }&lt;/div&gt;&lt;div style=&quot;font-size: 14px;&quot;&gt;this : window&lt;/div&gt;&lt;div style=&quot;font-size: 14px;&quot;&gt;&lt;/div&gt;&lt;span style=&quot;font-size: 14px;&quot;&gt;firstName&lt;/span&gt;&lt;span style=&quot;font-size: 14px; background-color: initial;&quot;&gt;:&amp;nbsp;&lt;/span&gt;&lt;span style=&quot;font-size: 14px;&quot;&gt;uninitialized&lt;/span&gt;&lt;br&gt;&lt;div style=&quot;font-size: 14px;&quot;&gt;&lt;br&gt;&lt;/div&gt;&lt;div style=&quot;font-size: 14px;&quot;&gt;after 1 line execute&amp;nbsp;&lt;/div&gt;&lt;div style=&quot;font-size: 14px;&quot;&gt;firstName: 'suraj'&lt;/div&gt;&lt;div style=&quot;font-size: 14px;&quot;&gt;&lt;br&gt;&lt;/div&gt;" style="rounded=0;whiteSpace=wrap;html=1;align=center;" vertex="1" parent="1">
                    <mxGeometry x="460" y="788" width="267" height="134" as="geometry"/>
                </mxCell>
                <mxCell id="30" value="&lt;font style=&quot;font-size: 14px;&quot;&gt;Code Execution Phase (CEP)&lt;/font&gt;" style="text;html=1;align=center;verticalAlign=middle;resizable=0;points=[];autosize=1;strokeColor=none;fillColor=none;" vertex="1" parent="1">
                    <mxGeometry x="88" y="758" width="210" height="30" as="geometry"/>
                </mxCell>
                <mxCell id="31" value="&lt;font style=&quot;font-size: 14px;&quot;&gt;Global Memory&lt;/font&gt;" style="text;html=1;align=center;verticalAlign=middle;resizable=0;points=[];autosize=1;strokeColor=none;fillColor=none;" vertex="1" parent="1">
                    <mxGeometry x="533" y="758" width="120" height="30" as="geometry"/>
                </mxCell>
                <mxCell id="32" value="" style="endArrow=none;html=1;fontSize=14;exitX=0;exitY=0;exitDx=0;exitDy=0;" edge="1" parent="1">
                    <mxGeometry width="50" height="50" relative="1" as="geometry">
                        <mxPoint x="460" y="789" as="sourcePoint"/>
                        <mxPoint x="460" y="749" as="targetPoint"/>
                    </mxGeometry>
                </mxCell>
                <mxCell id="33" value="OUTPUT :" style="text;html=1;align=center;verticalAlign=middle;resizable=0;points=[];autosize=1;strokeColor=none;fillColor=none;fontSize=14;" vertex="1" parent="1">
                    <mxGeometry x="55" y="970" width="90" height="30" as="geometry"/>
                </mxCell>
                <mxCell id="37" value="suraj" style="text;whiteSpace=wrap;html=1;fontSize=16;" vertex="1" parent="1">
                    <mxGeometry x="170" y="1000" width="210" height="60" as="geometry"/>
                </mxCell>
            </root>
        </mxGraphModel>
    </diagram>
</mxfile>